# xmcd
#
# Track frame offsets:
#	150
#	23785
#	46765
#	66660
#	86997
#	107182
#	126932
#	146947
#
# Disc length: 2225 seconds
#
# Revision: 3
# Processed by: cddbd v1.5.2PL0 Copyright (c) Steve Scherf et al.
# Submitted via: EasyCDDAExtractor 15.3.0.1
#
DISCID=7a08af08
DTITLE=Mayra and Celines - Por Las Dudas
DYEAR=1993
DGENRE=Latin
TTITLE0=Por Las Dudas
TTITLE1=A Dieta De Amor
TTITLE2=El Feo Buenmozo
TTITLE3=Se Acabo Tu Juego
TTITLE4=Pan Caliente
TTITLE5=Un Hombre
TTITLE6=Yo Me Emociono
TTITLE7=Quise Probar
EXTD=YEAR: 1993 ID3G:  86
EXTT0=
EXTT1=
EXTT2=
EXTT3=
EXTT4=
EXTT5=
EXTT6=
EXTT7=
PLAYORDER=
